# xmcd
#
# Track frame offsets: 
#        150
#        17857
#        34365
#        53153
#        77611
#        101164
#        120879
#        138106
#        167876
#        184702
#        202522
#        218163
#        235627
#        246550
#        263528
#        283827
#        291976
#        306729
#        322046
#        333438
#        345553
#
# Disc length: 4766 seconds
#
# Revision: 3
# Processed by: cddbd v1.5.2PL0 Copyright (c) Steve Scherf et al.
# Submitted via: ExactAudioCopy v1.0b3
#
DISCID=37129c15
DTITLE=Janis Joplin - I Got Dem Ol  Kozmic Blues Ahain Mama!          
DTITLE=                                                     
DTITLE=   
DYEAR=2000
DGENRE=Blues
TTITLE0=Try
TTITLE1=Maybe
TTITLE2=One Good Man
TTITLE3=As Good As You're Been to this World
TTITLE4=To Love Somebody
TTITLE5=Kozmic Blues
TTITLE6=Little Girl Blue
TTITLE7=Work Me, Lord
TTITLE8=Move Over
TTITLE9=Cry Baby
TTITLE10=A Woman Left Lonely
TTITLE11=Half Moon
TTITLE12=Buried Alive in the Blues
TTITLE13=My Baby
TTITLE14=Me and Bobby McGee
TTITLE15=Mercedes Benz
TTITLE16=Trust Me
TTITLE17=Get It While You Can
TTITLE18=Dear Landlord
TTITLE19=Call on Me
TTITLE20=Bye, Bye Baby
EXTD=
EXTT0=
EXTT1=
EXTT2=
EXTT3=
EXTT4=
EXTT5=
EXTT6=
EXTT7=
EXTT8=
EXTT9=
EXTT10=
EXTT11=
EXTT12=
EXTT13=
EXTT14=
EXTT15=
EXTT16=
EXTT17=
EXTT18=
EXTT19=
EXTT20=
PLAYORDER=
